<svg width="88" height="23" viewBox="0 0 88 23" fill="none" xmlns="http://www.w3.org/2000/svg">
<path d="M81.5227 22.5C80.4374 22.5 79.4694 22.3387 78.6187 22.016C77.768 21.6933 77.1447 21.2533 76.7487 20.696C76.646 20.5493 76.5947 20.4027 76.5947 20.256C76.5947 20.0213 76.712 19.816 76.9467 19.64C77.0347 19.5667 77.1667 19.53 77.3427 19.53C77.592 19.53 77.8267 19.6473 78.0467 19.882C78.3694 20.2633 78.8387 20.564 79.4547 20.784C80.0854 21.0187 80.7527 21.136 81.4567 21.136C82.7767 21.136 83.818 20.74 84.5807 19.948C85.358 19.156 85.7467 18.0853 85.7467 16.736V15.24C85.292 15.8413 84.7127 16.3033 84.0087 16.626C83.3047 16.934 82.5274 17.088 81.6767 17.088C79.8874 17.088 78.4867 16.582 77.4747 15.57C76.4774 14.5433 75.9787 13.1207 75.9787 11.302V6.814C75.9787 6.594 76.0594 6.41067 76.2207 6.264C76.382 6.10267 76.58 6.022 76.8147 6.022C77.0494 6.022 77.24 6.10267 77.3867 6.264C77.548 6.41067 77.6287 6.594 77.6287 6.814V11.302C77.6287 12.71 77.9807 13.81 78.6847 14.602C79.4034 15.3793 80.4007 15.768 81.6767 15.768C82.938 15.768 83.9134 15.394 84.6027 14.646C85.292 13.898 85.6367 12.8347 85.6367 11.456V7.034C85.6367 6.71133 85.71 6.462 85.8567 6.286C86.018 6.09533 86.238 6 86.5167 6C86.7807 6 86.986 6.09533 87.1327 6.286C87.294 6.462 87.3747 6.71133 87.3747 7.034V16.626C87.3747 17.7847 87.1254 18.804 86.6267 19.684C86.1427 20.5787 85.4607 21.268 84.5807 21.752C83.7007 22.2507 82.6814 22.5 81.5227 22.5Z" fill="black"/>
<path d="M67.9449 17.22C66.5076 17.22 65.3783 16.9047 64.5569 16.274C63.7503 15.6433 63.3469 14.7707 63.3469 13.656C63.3469 12.556 63.7723 11.6833 64.6229 11.038C65.4883 10.3927 66.6616 10.07 68.1429 10.07C69.0083 10.07 69.7709 10.1873 70.4309 10.422C71.1056 10.6567 71.6263 10.972 71.9929 11.368V9.96C71.9929 9.124 71.7143 8.486 71.1569 8.046C70.6143 7.606 69.8149 7.386 68.7589 7.386C67.3949 7.386 66.2143 7.70867 65.2169 8.354C64.9676 8.50067 64.7623 8.574 64.6009 8.574C64.4543 8.574 64.3076 8.51533 64.1609 8.398C63.9996 8.266 63.9189 8.09733 63.9189 7.892C63.9189 7.672 64.0143 7.48867 64.2049 7.342C64.7329 6.93133 65.4003 6.60867 66.2069 6.374C67.0283 6.12467 67.8643 6 68.7149 6C70.2696 6 71.4723 6.352 72.3229 7.056C73.1883 7.76 73.6209 8.75 73.6209 10.026V16.362C73.6209 16.934 73.3569 17.22 72.8289 17.22C72.5943 17.22 72.4036 17.1467 72.2569 17C72.1103 16.8387 72.0369 16.6333 72.0369 16.384V15.592C71.1276 16.6773 69.7636 17.22 67.9449 17.22ZM68.1429 15.878C69.2869 15.878 70.2183 15.6653 70.9369 15.24C71.6556 14.8 72.0149 14.2353 72.0149 13.546C72.0149 12.8567 71.6776 12.3287 71.0029 11.962C70.3429 11.5807 69.4043 11.39 68.1869 11.39C67.1603 11.39 66.3683 11.588 65.8109 11.984C65.2536 12.3653 64.9749 12.9227 64.9749 13.656C64.9749 14.3747 65.2463 14.9247 65.7889 15.306C66.3316 15.6873 67.1163 15.878 68.1429 15.878Z" fill="black"/>
<path d="M54.5251 17.22C52.7065 17.22 51.2691 16.7287 50.2131 15.746C49.1718 14.7487 48.6511 13.392 48.6511 11.676C48.6511 10.5907 48.8785 9.62267 49.3331 8.772C49.8025 7.90667 50.4771 7.232 51.3571 6.748C52.2518 6.24933 53.3225 6 54.5691 6C55.6251 6 56.5198 6.198 57.2531 6.594C58.0011 6.99 58.6611 7.54 59.2331 8.244L59.2551 1.182C59.2551 0.903332 59.3211 0.690666 59.4531 0.543999C59.5998 0.382665 59.8051 0.301998 60.0691 0.301998C60.3185 0.301998 60.5091 0.382665 60.6411 0.543999C60.7878 0.690666 60.8611 0.903332 60.8611 1.182V16.34C60.8611 16.6187 60.7878 16.8387 60.6411 17C60.5091 17.1467 60.3185 17.22 60.0691 17.22C59.8198 17.22 59.6218 17.1467 59.4751 17C59.3285 16.8387 59.2551 16.6187 59.2551 16.34V14.932C58.7418 15.68 58.0818 16.252 57.2751 16.648C56.4831 17.0293 55.5665 17.22 54.5251 17.22ZM54.6571 15.834C56.0798 15.834 57.2018 15.46 58.0231 14.712C58.8445 13.9493 59.2551 12.9153 59.2551 11.61C59.2551 10.7447 59.0425 9.99667 58.6171 9.366C58.2065 8.72067 57.6491 8.22933 56.9451 7.892C56.2558 7.55467 55.5005 7.386 54.6791 7.386C53.3005 7.386 52.2225 7.782 51.4451 8.574C50.6678 9.35133 50.2791 10.3853 50.2791 11.676C50.2791 13.0547 50.6605 14.096 51.4231 14.8C52.1858 15.4893 53.2638 15.834 54.6571 15.834Z" fill="black"/>
<path d="M36.6099 17.22C36.3605 17.22 36.1625 17.1467 36.0159 17C35.8839 16.8387 35.8179 16.6187 35.8179 16.34V6.88C35.8179 6.60133 35.8839 6.38867 36.0159 6.242C36.1479 6.08067 36.3459 6 36.6099 6C36.8592 6 37.0499 6.08067 37.1819 6.242C37.3285 6.38867 37.4019 6.60133 37.4019 6.88V8.178C37.9445 7.45933 38.5972 6.91667 39.3599 6.55C40.1372 6.18333 40.9879 6 41.9119 6C43.3052 6 44.3759 6.38867 45.1239 7.166C45.8865 7.94333 46.2679 9.058 46.2679 10.51V16.34C46.2679 16.6187 46.1945 16.8387 46.0479 17C45.9012 17.1467 45.7032 17.22 45.4539 17.22C45.1899 17.22 44.9919 17.1467 44.8599 17C44.7279 16.8387 44.6619 16.6187 44.6619 16.34V10.51C44.6619 8.42733 43.6792 7.386 41.7139 7.386C40.4232 7.386 39.3819 7.76733 38.5899 8.53C37.8125 9.29267 37.4239 10.3047 37.4239 11.566V16.34C37.4239 16.604 37.3505 16.8167 37.2039 16.978C37.0719 17.1393 36.8739 17.22 36.6099 17.22Z" fill="black"/>
<path d="M27.5883 17.22C26.3123 17.22 25.2196 16.9633 24.3103 16.45C23.401 15.9367 22.7116 15.2547 22.2423 14.404C21.7876 13.5387 21.5603 12.6073 21.5603 11.61C21.5603 10.6127 21.7876 9.68867 22.2423 8.838C22.7116 7.97267 23.401 7.28333 24.3103 6.77C25.2196 6.25667 26.3123 6 27.5883 6C28.8643 6 29.9496 6.25667 30.8443 6.77C31.7536 7.28333 32.4356 7.97267 32.8903 8.838C33.3596 9.68867 33.5943 10.6127 33.5943 11.61C33.5943 12.6073 33.3596 13.5387 32.8903 14.404C32.4356 15.2547 31.7536 15.9367 30.8443 16.45C29.9496 16.9633 28.8643 17.22 27.5883 17.22ZM27.5883 15.834C28.9083 15.834 29.9643 15.46 30.7563 14.712C31.563 13.964 31.9663 12.93 31.9663 11.61C31.9663 10.29 31.563 9.256 30.7563 8.508C29.9643 7.76 28.9083 7.386 27.5883 7.386C26.2536 7.386 25.183 7.76 24.3763 8.508C23.5843 9.256 23.1883 10.29 23.1883 11.61C23.1883 12.93 23.5843 13.964 24.3763 14.712C25.183 15.46 26.2536 15.834 27.5883 15.834Z" fill="black"/>
<path d="M1.46402 17.22C1.21469 17.22 1.01669 17.1467 0.870024 17C0.723358 16.8387 0.650024 16.6187 0.650024 16.34V6.396C0.650024 4.84133 1.09002 3.61667 1.97002 2.722C2.85002 1.82733 4.06002 1.38 5.60002 1.38C6.49469 1.38 7.31603 1.61467 8.06403 2.084C8.82669 2.53867 9.39869 3.14733 9.78003 3.91C10.1614 3.13267 10.7187 2.51667 11.452 2.062C12.2 1.60733 13.036 1.38 13.96 1.38C15.5 1.38 16.71 1.82733 17.59 2.722C18.47 3.602 18.91 4.82667 18.91 6.396V16.34C18.91 16.6187 18.8294 16.8387 18.668 17C18.5214 17.1467 18.3234 17.22 18.074 17.22C17.81 17.22 17.6047 17.1467 17.458 17C17.326 16.8387 17.26 16.6187 17.26 16.34V6.396C17.26 5.23733 16.996 4.35 16.468 3.734C15.9547 3.118 15.104 2.81 13.916 2.81C12.8747 2.81 12.0607 3.13267 11.474 3.778C10.8874 4.40867 10.594 5.28133 10.594 6.396V16.34C10.594 16.6187 10.5207 16.8387 10.374 17C10.2274 17.1467 10.0294 17.22 9.78003 17.22C9.53069 17.22 9.33269 17.1467 9.18603 17C9.05403 16.8387 8.98803 16.6187 8.98803 16.34V6.396C8.98803 5.31067 8.68003 4.44533 8.06403 3.8C7.44803 3.14 6.64136 2.81 5.64402 2.81C4.45602 2.81 3.59802 3.118 3.07002 3.734C2.55669 4.35 2.30002 5.23733 2.30002 6.396V16.34C2.30002 16.6187 2.22669 16.8387 2.08002 17C1.93336 17.1467 1.72802 17.22 1.46402 17.22Z" fill="black"/>
</svg>
